<?xml version="1.0" encoding="UTF-8"?>
<svg width="146px" height="33px" viewBox="0 0 146 33" version="1.1" xmlns="http://www.w3.org/2000/svg" xmlns:xlink="http://www.w3.org/1999/xlink">
    <!-- Generator: Sketch 52.5 (67469) - http://www.bohemiancoding.com/sketch -->
    <title>cosnova-logo-2017-small</title>
    <desc>Created with Sketch.</desc>
    <g id="Page-1" stroke="none" stroke-width="1" fill="none" fill-rule="evenodd">
        <g id="cosnova-logo-2017-small" transform="translate(0.000000, -1.000000)" fill="#C9003C">
            <path d="M30.09,1 C23.98,1 21.09,3.25 21.09,9.06 C21.09,14.87 24,17.06 30.09,17.06 C36.18,17.06 39.09,14.91 39.09,9.06 C39.09,3.21 36.25,1 30.09,1 Z M30.09,14.52 C25.09,14.52 23.88,13.02 23.88,9.06 C23.88,5.1 25.13,3.59 30.09,3.59 C35.05,3.59 36.3,5.16 36.3,9.06 C36.3,12.96 35.12,14.52 30.09,14.52 Z" id="Shape" fill-rule="nonzero"></path>
            <path d="M96.1,1 C89.99,1 87.1,3.25 87.1,9.06 C87.1,14.87 90.01,17.06 96.1,17.06 C102.19,17.06 105.1,14.91 105.1,9.06 C105.1,3.21 102.25,1 96.1,1 Z M96.1,14.52 C91.1,14.52 89.88,13.02 89.88,9.06 C89.88,5.1 91.14,3.59 96.1,3.59 C101.06,3.59 102.31,5.16 102.31,9.06 C102.31,12.96 101.12,14.52 96.1,14.52 Z" id="Shape" fill-rule="nonzero"></path>
            <path d="M73.75,1 C67.64,1 65,3.25 65,9.06 L65,16.89 L67.77,16.89 L67.77,9.06 C67.77,5.18 68.77,3.59 73.77,3.59 C78.77,3.59 79.77,5.16 79.77,9.06 L79.77,16.89 L82.6,16.89 L82.6,9.06 C82.55,3.25 79.91,1 73.75,1 Z" id="Path"></path>
            <path d="M122.15,7.56 C121.15,11.06 119.8,12.71 117.82,14.06 C117.65967,14.1730945 117.484743,14.2639222 117.3,14.33 C117.110863,14.2669208 116.932221,14.1759146 116.77,14.06 C114.77,12.71 113.45,11.06 112.43,7.56 C111.812698,5.52040176 111.499331,3.40096753 111.5,1.27 L108.67,1.27 C108.694976,3.68218417 109.058525,6.07891395 109.75,8.39 C110.596632,11.5970013 112.512161,14.4191427 115.18,16.39 C116.393898,17.4416739 118.196102,17.4416739 119.41,16.39 C122.077839,14.4191427 123.993368,11.5970013 124.84,8.39 C125.531475,6.07891395 125.895024,3.68218417 125.92,1.27 L123.1,1.27 C123.097572,3.40221889 122.777389,5.52217111 122.15,7.56 Z" id="Path"></path>
            <path d="M9,3.59 C12.33,3.59 14,4.28 14.71,5.9 L17.36,5 C16.19,2.18 13.47,1 9,1 C2.91,1 0,3.25 0,9.06 C0,14.87 2.91,17.06 9,17.06 C13.41,17.06 16.12,15.97 17.32,13.19 L14.67,12.3 C13.92,13.84 12.28,14.47 9,14.47 C4,14.52 2.8,13 2.8,9.06 C2.8,5.12 4.06,3.59 9,3.59 Z" id="Path"></path>
            <path d="M56.25,8.06 C54.8380983,7.91510629 53.419269,7.84833786 52,7.86 C50.7202115,7.86958976 49.4410681,7.79945397 48.17,7.65 C47.12,7.42 46.17,6.79 46.17,5.72 C46.2572382,4.84913275 46.9167884,4.14452004 47.78,4 C49.0856631,3.66756782 50.4355123,3.54270677 51.78,3.63 C54.93,3.68 56.41,4.01 57.18,5.39 L57.24,5.5 L59.85,4.68 L59.78,4.52 C58.58,1.85 56.41,1.08 52.26,1 C49.26,0.94 46.87,1.13 45.26,2.33 C44.0842308,3.06005052 43.3693843,4.34601785 43.37,5.73 C43.37,7.89 44.97,9.46 47.22,10.06 C48.8951299,10.3356393 50.5932731,10.4461694 52.29,10.39 L54.29,10.39 C54.8673038,10.3958562 55.4416658,10.4731095 56,10.62 C57,10.87 57.76,11.54 57.74,12.35 C57.687634,13.1820443 57.1389275,13.9004945 56.35,14.17 C54.8136833,14.6079968 53.2151556,14.787113 51.62,14.7 C48.44,14.7 46.76,14.46 45.91,12.2 L45.91,12.04 L43.08,13 L43.08,13.14 C44.16,16.78 47.42,17.14 51.55,17.25 C54.55,17.3 57.39,16.97 58.92,15.7 C59.8247408,14.9018406 60.3601847,13.7658313 60.4,12.56 C60.48,10.37 58.92,8.47 56.25,8.06 Z" id="Path"></path>
            <path d="M142.65,16.94 C142.65,15.94 142.54,14.94 142.43,14.14 L142.43,13.99 L131,13.99 L131,14.14 C130.89,15 130.82,15.92 130.79,16.94 L128.29,16.94 C128.339222,14.4970052 128.702195,12.0704643 129.37,9.72 C130.189257,6.5696884 132.054521,3.79118529 134.66,1.84 C135.798803,0.82142397 137.521197,0.82142397 138.66,1.84 C141.294531,3.77709726 143.186157,6.55806956 144.02,9.72 C144.69016,12.0696721 145.049882,14.4969561 145.09,16.94 L142.65,16.94 Z M136.65,3.57 C136.450098,3.64993576 136.259067,3.75047836 136.08,3.87 C134.21,5.14 132.75,6.74 131.68,10.45 L131.49,11.45 L141.9,11.45 C141.9,11.45 141.75,10.61 141.71,10.45 C140.63,6.75 139.17,5.14 137.3,3.87 C137.122957,3.74710915 136.931533,3.64635943 136.73,3.57 L136.63,3.57 L136.65,3.57 Z" id="Shape" fill-rule="nonzero"></path>
            <path d="M36.72,27.32 L40.78,27.32 C41.65,27.32 43.01,27.5 43.01,28.93 C43.0534975,29.5049167 42.6918123,30.0328939 42.14,30.2 C42.8545602,30.3837254 43.3427005,31.0429234 43.31,31.78 C43.3178558,32.1058392 43.2272425,32.4264711 43.05,32.7 C42.4548769,33.3577352 41.5636031,33.6636385 40.69,33.51 L36.69,33.51 L36.72,27.32 Z M40.84,29.93 C41.2448795,30.0038597 41.65879,29.8595606 41.93,29.55 C42.0393525,29.3872933 42.0984692,29.1960334 42.1,29 C42.1075772,28.6919326 41.9516206,28.4028423 41.69,28.24 C41.3831104,28.0777811 41.0356745,28.008294 40.69,28.04 L37.6,28.04 L37.6,29.94 L40.84,29.93 Z M41,32.79 C41.4602696,32.8534899 41.9226928,32.6894043 42.24,32.35 C42.3761491,32.1687404 42.4466701,31.9465991 42.44,31.72 C42.4531202,31.5002552 42.3933642,31.2823216 42.27,31.1 C41.9535215,30.7390826 41.4741996,30.5654699 41,30.64 L37.6,30.64 L37.6,32.79 L41,32.79 Z" id="Shape" fill-rule="nonzero"></path>
            <polygon id="Path" points="50.68 33.51 50.68 27.32 56.38 27.32 56.38 28.09 51.55 28.09 51.55 29.93 56.26 29.93 56.26 30.66 51.55 30.66 51.55 32.75 56.61 32.75 56.61 33.51"></polygon>
            <path d="M69.57,33.51 L68.82,32 L65,32 L64.25,33.53 L63.25,33.53 L66.46,27.34 L67.4,27.34 L70.56,33.53 L69.57,33.51 Z M66.92,28.21 L65.38,31.28 L68.44,31.28 L66.92,28.21 Z" id="Shape" fill-rule="nonzero"></path>
            <path d="M78,27.32 L78,31.1 C78,32.1 78.38,32.32 78.64,32.48 C79.147617,32.7786048 79.7318958,32.9211966 80.32,32.89 C80.49,32.89 82.04,32.89 82.44,32.01 C82.5525846,31.7240273 82.6003975,31.4166588 82.58,31.11 L82.58,27.32 L83.46,27.32 L83.46,31.05 C83.4828988,31.444208 83.4250502,31.8389397 83.29,32.21 C82.79,33.39 81.41,33.66 80.29,33.66 C79.82,33.66 78.07,33.66 77.39,32.37 C77.1702466,31.9477098 77.0634548,31.4757593 77.08,31 L77.08,27.32 L78,27.32 Z" id="Path"></path>
            <polygon id="Path" points="93.8 28.06 93.8 33.51 92.92 33.51 92.92 28.06 90.4 28.06 90.4 27.32 96.33 27.32 96.33 28.06"></polygon>
            <polygon id="Path" points="106.9 31.12 106.9 33.51 106 33.51 106 31.1 103 27.32 104.13 27.32 106.52 30.32 108.96 27.32 110 27.32"></polygon>
        </g>
    </g>
</svg>